<?xml version="1.0" encoding="utf-8"?>
<!-- Generator: Adobe Illustrator 21.0.2, SVG Export Plug-In . SVG Version: 6.00 Build 0)  -->
<svg version="1.1" id="Layer_1" xmlns="http://www.w3.org/2000/svg" xmlns:xlink="http://www.w3.org/1999/xlink" x="0px" y="0px"
	 viewBox="0 0 354 100" style="enable-background:new 0 0 354 100;" xml:space="preserve">
<style type="text/css">
	.st0{fill-rule:evenodd;clip-rule:evenodd;fill:#FFFFFF;}
	.st1{fill:#FFFFFF;}
</style>
<title>RH Bophelo Logo</title>
<g>
	<g>
		<path class="st0" d="M84.2,20c0,0-14-3.9-29.4,0c0,0-1.2-6.4-5.7-8.2c0,0-2.7-1.4-7,2.2c0,0,0.7,8.5,6.2,9.6c0,0,3.8,1.3,9.6-0.2
			c9.3-2.3,30.3-3.2,38.1,13.4c0,0,4.6,9,4.3,20.4c0,0-4.4-16.9-38.1-14.8c-6.9,0.4-23.8,6.8-29.2-13c-2-7.5-3.5-19.5,10.2-26.1
			C43.3,3.1,64.6-7.6,84.2,20z"/>
		<path class="st0" d="M7.9,41.9c0,0,3.7,14.1,14.8,25.5c0,0-5,4.2-4.3,9c0,0,0.2,3,5.4,4.9c0,0,7-4.8,5.2-10.1c0,0-0.8-3.9-5-8.3
			c-6.7-6.9-18-24.6-7.5-39.7c0,0,5.5-8.5,15.5-13.9c0,0-12.4,12.3,6.3,40.4c3.8,5.7,17.8,17.2,3.3,31.8C36,87,26.3,94.3,13.7,85.7
			C13.7,85.7-6.2,72.7,7.9,41.9z"/>
		<path class="st0" d="M64.6,97.4c0,0,10.5-10.1,14.9-25.3c0,0,6.1,2.3,10-0.7c0,0,2.6-1.7,1.7-7.1c0,0-7.6-3.7-11.4,0.5
			c0,0-3,2.6-4.7,8.4c-2.7,9.2-12.7,27.7-30.9,26c0,0-10.1-0.6-19.8-6.7c0,0,16.8,4.8,32.1-25.3c3.1-6.1,6.3-24,26.1-18.5
			c7.5,2.1,18.6,6.9,17.3,22.1C99.9,70.8,98.3,94.6,64.6,97.4z"/>
	</g>
	<g>
		<g>
			<path class="st1" d="M120.7,27.7h-8.6v-5.9H136v5.9h-8.6V52h-6.6V27.7z"/>
			<path class="st1" d="M139.4,21.8h6.6V33h12.9V21.8h6.6V52h-6.6v-13H146v13h-6.6V21.8z"/>
			<path class="st1" d="M171.6,21.8h6.6V52h-6.6V21.8z"/>
			<path class="st1" d="M184.3,21.8H196c1.5,0,3,0.1,4.4,0.4c1.4,0.3,2.6,0.8,3.6,1.5c1,0.7,1.9,1.6,2.5,2.8
				c0.6,1.2,0.9,2.6,0.9,4.4c0,2.1-0.6,3.9-1.7,5.4c-1.1,1.5-2.7,2.4-4.9,2.8l7.7,12.7h-8l-6.3-12.1H191V52h-6.6V21.8z M191,34.3
				h3.9c0.6,0,1.2,0,1.9-0.1c0.7,0,1.3-0.2,1.8-0.4c0.5-0.2,1-0.5,1.3-1c0.4-0.5,0.5-1.1,0.5-1.9c0-0.8-0.2-1.4-0.5-1.8
				c-0.3-0.5-0.7-0.8-1.2-1c-0.5-0.2-1-0.4-1.7-0.5c-0.6-0.1-1.2-0.1-1.8-0.1H191V34.3z"/>
			<path class="st1" d="M211.9,21.8h10c2.4,0,4.7,0.3,6.9,0.8c2.2,0.5,4.1,1.4,5.7,2.6c1.6,1.2,2.9,2.8,3.9,4.7c1,1.9,1.4,4.3,1.4,7
				c0,2.4-0.5,4.6-1.4,6.5c-0.9,1.9-2.2,3.4-3.7,4.7c-1.6,1.3-3.4,2.2-5.4,2.9c-2,0.7-4.2,1-6.4,1h-10.9V21.8z M218.6,45.8h3.5
				c1.5,0,3-0.2,4.3-0.5c1.3-0.3,2.5-0.8,3.4-1.6c1-0.7,1.7-1.7,2.3-2.9c0.6-1.2,0.8-2.6,0.8-4.3c0-1.5-0.3-2.8-0.8-3.9
				c-0.6-1.1-1.3-2-2.2-2.7c-0.9-0.7-2-1.2-3.3-1.6c-1.3-0.4-2.6-0.5-4-0.5h-3.9V45.8z"/>
			<path class="st1" d="M253.7,21.8h7.2l4.8,19.3h0.1l6.3-19.3h6.2l6.3,19.9h0.1l5.1-19.9h6.7L287.7,52h-5.9l-6.6-20.9h-0.1
				L268.4,52h-5.7L253.7,21.8z"/>
			<path class="st1" d="M308.4,21.8h5.5L327,52h-7.5l-2.6-6.4h-11.7l-2.5,6.4h-7.3L308.4,21.8z M310.9,30.6l-3.7,9.4h7.4L310.9,30.6
				z"/>
			<path class="st1" d="M334.3,39.1L323,21.8h8.3l6.4,11.3l6.8-11.3h7.9l-11.3,17.3V52h-6.6V39.1z"/>
		</g>
		<g>
			<path class="st1" d="M120.7,62.1h1.7v18.1h-1.7V62.1z"/>
			<path class="st1" d="M126.9,71.7c0-0.2,0-0.5,0-0.8c0-0.3,0-0.6,0-1c0-0.3,0-0.6,0-0.9c0-0.3,0-0.5,0-0.7h1.5c0,0.4,0,0.9,0,1.3
				c0,0.4,0,0.7,0.1,0.8h0.1c0.3-0.6,0.8-1.2,1.5-1.7c0.7-0.5,1.5-0.7,2.5-0.7c0.9,0,1.7,0.1,2.2,0.4c0.6,0.3,1,0.7,1.4,1.1
				c0.3,0.5,0.6,1,0.7,1.6c0.1,0.6,0.2,1.2,0.2,1.9v7h-1.5v-6.9c0-0.5,0-0.9-0.1-1.4c-0.1-0.5-0.2-0.9-0.4-1.2
				c-0.2-0.4-0.5-0.6-0.9-0.9c-0.4-0.2-0.9-0.3-1.5-0.3c-0.6,0-1.1,0.1-1.6,0.3c-0.5,0.2-0.9,0.5-1.3,0.9c-0.4,0.4-0.7,0.9-0.9,1.5
				c-0.2,0.6-0.3,1.3-0.3,2.1v5.9h-1.5V71.7z"/>
			<path class="st1" d="M139.4,68.4h1.7l3.9,10.1l3.8-10.1h1.6l-4.6,11.8h-1.6L139.4,68.4z"/>
			<path class="st1" d="M163.3,78c-0.6,0.9-1.3,1.5-2.2,1.9c-0.9,0.4-1.8,0.6-2.9,0.6c-0.9,0-1.7-0.2-2.4-0.5
				c-0.7-0.3-1.4-0.7-1.9-1.3c-0.5-0.6-0.9-1.2-1.2-2c-0.3-0.8-0.4-1.6-0.4-2.5c0-0.9,0.1-1.7,0.4-2.4c0.3-0.7,0.7-1.4,1.2-2
				c0.5-0.6,1.1-1,1.9-1.3c0.7-0.3,1.5-0.5,2.4-0.5c0.9,0,1.7,0.2,2.4,0.5c0.7,0.3,1.3,0.7,1.7,1.3c0.5,0.5,0.8,1.1,1.1,1.8
				c0.2,0.7,0.4,1.3,0.4,2v1.1h-9.9c0,0.3,0.1,0.7,0.2,1.2c0.1,0.5,0.4,1,0.7,1.5c0.3,0.5,0.8,0.9,1.4,1.2c0.6,0.3,1.3,0.5,2.2,0.5
				c0.8,0,1.5-0.2,2.3-0.6c0.7-0.4,1.3-0.9,1.7-1.5L163.3,78z M162.1,73.3c0-0.5-0.1-1-0.3-1.5c-0.2-0.5-0.5-0.9-0.9-1.2
				c-0.4-0.3-0.8-0.6-1.3-0.8c-0.5-0.2-1-0.3-1.6-0.3c-0.8,0-1.5,0.2-2.1,0.5c-0.6,0.3-1,0.7-1.3,1.2c-0.3,0.4-0.6,0.9-0.7,1.3
				c-0.1,0.4-0.2,0.7-0.2,0.9H162.1z"/>
			<path class="st1" d="M167.1,77.2c0.3,0.6,0.8,1.1,1.4,1.4c0.6,0.3,1.3,0.5,2,0.5c0.3,0,0.6-0.1,1-0.2c0.3-0.1,0.6-0.2,0.9-0.4
				c0.3-0.2,0.5-0.4,0.6-0.7c0.2-0.3,0.2-0.6,0.2-0.9c0-0.5-0.2-1-0.5-1.2c-0.3-0.3-0.8-0.5-1.3-0.6c-0.5-0.2-1.1-0.3-1.7-0.4
				c-0.6-0.1-1.2-0.3-1.7-0.5c-0.5-0.2-0.9-0.5-1.3-1c-0.3-0.4-0.5-1-0.5-1.7c0-0.6,0.1-1.1,0.4-1.5c0.2-0.4,0.5-0.8,0.9-1.1
				c0.4-0.3,0.8-0.5,1.3-0.6c0.5-0.1,1-0.2,1.5-0.2c1,0,1.8,0.2,2.5,0.5c0.7,0.4,1.3,0.9,1.6,1.7l-1.4,0.8c-0.3-0.5-0.7-1-1.1-1.2
				c-0.4-0.3-1-0.4-1.7-0.4c-0.3,0-0.6,0-0.9,0.1c-0.3,0.1-0.6,0.2-0.8,0.4c-0.2,0.2-0.4,0.3-0.6,0.6c-0.2,0.2-0.2,0.5-0.2,0.8
				c0,0.5,0.2,0.9,0.5,1.2c0.3,0.3,0.8,0.5,1.3,0.6c0.5,0.1,1.1,0.3,1.7,0.4c0.6,0.1,1.2,0.3,1.7,0.5c0.5,0.2,0.9,0.6,1.3,1
				c0.3,0.4,0.5,1,0.5,1.8c0,0.6-0.1,1.1-0.3,1.6c-0.2,0.5-0.5,0.8-0.9,1.1c-0.4,0.3-0.9,0.5-1.4,0.7c-0.5,0.2-1,0.2-1.6,0.2
				c-1,0-2-0.2-2.8-0.6c-0.8-0.4-1.5-1-2-1.8L167.1,77.2z"/>
			<path class="st1" d="M183.7,69.8h-3.4v7.7c0,0.5,0.1,0.9,0.4,1.2c0.3,0.3,0.7,0.4,1.2,0.4c0.3,0,0.6,0,0.9-0.1
				c0.3-0.1,0.6-0.2,0.9-0.3l0.1,1.4c-0.3,0.1-0.6,0.2-1,0.3c-0.4,0.1-0.7,0.1-1,0.1c-0.5,0-1-0.1-1.4-0.2c-0.4-0.2-0.7-0.4-0.9-0.7
				c-0.2-0.3-0.4-0.6-0.5-1c-0.1-0.4-0.2-0.8-0.2-1.2v-7.7h-2.6v-1.4h2.6V65h1.5v3.4h3.4V69.8z"/>
			<path class="st1" d="M186.4,71.7c0-0.2,0-0.5,0-0.8c0-0.3,0-0.6,0-1c0-0.3,0-0.6,0-0.9c0-0.3,0-0.5,0-0.7h1.5c0,0.4,0,0.9,0,1.3
				c0,0.4,0,0.7,0.1,0.8h0.1c0.3-0.6,0.8-1.2,1.5-1.7c0.7-0.5,1.5-0.7,2.5-0.7c0.8,0,1.5,0.2,2.1,0.6c0.6,0.4,1.1,1.1,1.4,2
				c0.4-0.9,0.9-1.5,1.7-1.9s1.5-0.6,2.3-0.6c0.9,0,1.7,0.1,2.2,0.4c0.6,0.3,1,0.7,1.4,1.1c0.3,0.5,0.6,1,0.7,1.6
				c0.1,0.6,0.2,1.2,0.2,1.9v7h-1.5v-6.9c0-0.5,0-0.9-0.1-1.4c-0.1-0.5-0.2-0.9-0.4-1.2c-0.2-0.4-0.5-0.6-0.9-0.9
				c-0.4-0.2-0.9-0.3-1.5-0.3c-0.7,0-1.3,0.1-1.8,0.4c-0.5,0.3-0.8,0.6-1.1,1c-0.3,0.4-0.5,0.9-0.6,1.3c-0.1,0.5-0.2,0.9-0.2,1.4
				v6.6h-1.5v-7.1c0-1.1-0.2-2-0.6-2.6c-0.4-0.7-1-1-1.8-1c-0.6,0-1.1,0.1-1.6,0.3c-0.5,0.2-0.9,0.5-1.3,0.9
				c-0.4,0.4-0.7,0.9-0.9,1.5c-0.2,0.6-0.3,1.3-0.3,2.1v5.9h-1.5V71.7z"/>
			<path class="st1" d="M218.6,78c-0.6,0.9-1.3,1.5-2.2,1.9c-0.9,0.4-1.8,0.6-2.9,0.6c-0.9,0-1.7-0.2-2.4-0.5
				c-0.7-0.3-1.4-0.7-1.9-1.3c-0.5-0.6-0.9-1.2-1.2-2c-0.3-0.8-0.4-1.6-0.4-2.5c0-0.9,0.1-1.7,0.4-2.4c0.3-0.7,0.7-1.4,1.2-2
				c0.5-0.6,1.1-1,1.9-1.3c0.7-0.3,1.5-0.5,2.4-0.5c0.9,0,1.7,0.2,2.4,0.5c0.7,0.3,1.3,0.7,1.7,1.3c0.5,0.5,0.8,1.1,1.1,1.8
				c0.2,0.7,0.4,1.3,0.4,2v1.1H209c0,0.3,0.1,0.7,0.2,1.2c0.1,0.5,0.4,1,0.7,1.5c0.3,0.5,0.8,0.9,1.4,1.2c0.6,0.3,1.3,0.5,2.2,0.5
				c0.8,0,1.5-0.2,2.3-0.6c0.7-0.4,1.3-0.9,1.7-1.5L218.6,78z M217.4,73.3c0-0.5-0.1-1-0.3-1.5c-0.2-0.5-0.5-0.9-0.9-1.2
				c-0.4-0.3-0.8-0.6-1.3-0.8c-0.5-0.2-1-0.3-1.6-0.3c-0.8,0-1.5,0.2-2.1,0.5c-0.6,0.3-1,0.7-1.3,1.2c-0.3,0.4-0.6,0.9-0.7,1.3
				c-0.1,0.4-0.2,0.7-0.2,0.9H217.4z"/>
			<path class="st1" d="M222.4,71.7c0-0.2,0-0.5,0-0.8c0-0.3,0-0.6,0-1c0-0.3,0-0.6,0-0.9c0-0.3,0-0.5,0-0.7h1.5c0,0.4,0,0.9,0,1.3
				c0,0.4,0,0.7,0.1,0.8h0.1c0.3-0.6,0.8-1.2,1.5-1.7c0.7-0.5,1.5-0.7,2.5-0.7c0.9,0,1.7,0.1,2.2,0.4c0.6,0.3,1,0.7,1.4,1.1
				c0.3,0.5,0.6,1,0.7,1.6c0.1,0.6,0.2,1.2,0.2,1.9v7h-1.5v-6.9c0-0.5,0-0.9-0.1-1.4c-0.1-0.5-0.2-0.9-0.4-1.2
				c-0.2-0.4-0.5-0.6-0.9-0.9c-0.4-0.2-0.9-0.3-1.5-0.3c-0.6,0-1.1,0.1-1.6,0.3c-0.5,0.2-0.9,0.5-1.3,0.9c-0.4,0.4-0.7,0.9-0.9,1.5
				s-0.3,1.3-0.3,2.1v5.9h-1.5V71.7z"/>
			<path class="st1" d="M242.3,69.8h-3.4v7.7c0,0.5,0.1,0.9,0.4,1.2c0.3,0.3,0.7,0.4,1.2,0.4c0.3,0,0.6,0,0.9-0.1
				c0.3-0.1,0.6-0.2,0.9-0.3l0.1,1.4c-0.3,0.1-0.6,0.2-1,0.3c-0.4,0.1-0.7,0.1-1,0.1c-0.5,0-1-0.1-1.4-0.2c-0.4-0.2-0.7-0.4-0.9-0.7
				c-0.2-0.3-0.4-0.6-0.5-1c-0.1-0.4-0.2-0.8-0.2-1.2v-7.7h-2.6v-1.4h2.6V65h1.5v3.4h3.4V69.8z"/>
			<path class="st1" d="M252.1,62.1h5.2c0.6,0,1.3,0.1,2,0.2c0.7,0.1,1.3,0.4,1.9,0.8c0.6,0.4,1,0.8,1.4,1.5
				c0.4,0.6,0.5,1.4,0.5,2.3c0,0.8-0.1,1.5-0.4,2.1c-0.3,0.6-0.7,1.1-1.2,1.5c-0.5,0.4-1.1,0.7-1.7,0.9c-0.7,0.2-1.3,0.3-2.1,0.3
				h-3.9v8.6h-1.7V62.1z M253.8,70.1h3.8c0.5,0,0.9-0.1,1.4-0.2c0.5-0.1,0.9-0.3,1.2-0.5c0.4-0.2,0.6-0.6,0.9-1
				c0.2-0.4,0.3-0.9,0.3-1.5c0-0.6-0.1-1.1-0.3-1.5c-0.2-0.4-0.5-0.7-0.9-1c-0.4-0.3-0.8-0.5-1.3-0.6c-0.5-0.1-1-0.2-1.4-0.2h-3.7
				V70.1z"/>
			<path class="st1" d="M275.5,75.2c0,0.6,0,1.1,0,1.6c0,0.5,0,0.9,0,1.3c0,0.4,0,0.8,0.1,1.1s0.1,0.7,0.1,1h-1.4
				c-0.1-0.6-0.2-1.2-0.2-1.9h-0.1c-0.4,0.8-1,1.3-1.6,1.7c-0.7,0.4-1.5,0.5-2.5,0.5c-0.5,0-1-0.1-1.5-0.2c-0.5-0.1-0.9-0.3-1.3-0.6
				s-0.7-0.6-1-1.1c-0.2-0.4-0.4-1-0.4-1.6c0-0.9,0.2-1.6,0.7-2.1c0.5-0.5,1-0.9,1.7-1.2c0.7-0.3,1.4-0.4,2.1-0.5
				c0.8-0.1,1.4-0.1,2-0.1h1.8v-0.7c0-1-0.3-1.8-0.9-2.2c-0.6-0.4-1.4-0.7-2.4-0.7c-1.4,0-2.6,0.4-3.6,1.3l-0.9-1
				c0.6-0.5,1.3-1,2.1-1.2c0.8-0.3,1.6-0.4,2.4-0.4c1.4,0,2.6,0.3,3.4,1c0.9,0.7,1.3,1.8,1.3,3.3V75.2z M272.4,74.3
				c-0.6,0-1.3,0-1.9,0.1c-0.6,0.1-1.1,0.2-1.6,0.4c-0.5,0.2-0.9,0.5-1.2,0.8c-0.3,0.3-0.4,0.8-0.4,1.3c0,0.4,0.1,0.7,0.2,1
				c0.2,0.3,0.4,0.5,0.6,0.7c0.3,0.2,0.5,0.3,0.9,0.4c0.3,0.1,0.6,0.1,1,0.1c0.8,0,1.5-0.1,2-0.4c0.5-0.2,0.9-0.5,1.3-0.9
				c0.3-0.4,0.5-0.8,0.7-1.3c0.1-0.5,0.2-1,0.2-1.5v-0.8H272.4z"/>
			<path class="st1" d="M279.5,71.7c0-0.2,0-0.5,0-0.8c0-0.3,0-0.6,0-1c0-0.3,0-0.6,0-0.9c0-0.3,0-0.5,0-0.7h1.5c0,0.4,0,0.9,0,1.3
				c0,0.4,0,0.7,0.1,0.8c0.4-0.7,0.9-1.3,1.5-1.7c0.6-0.4,1.4-0.7,2.2-0.7c0.2,0,0.3,0,0.4,0c0.1,0,0.3,0.1,0.4,0.1l-0.2,1.5
				c-0.2-0.1-0.4-0.1-0.6-0.1c-0.7,0-1.2,0.1-1.7,0.3c-0.5,0.2-0.9,0.5-1.2,0.9c-0.3,0.4-0.5,0.8-0.7,1.3c-0.2,0.5-0.2,1-0.2,1.6
				v6.4h-1.5V71.7z"/>
			<path class="st1" d="M293.8,69.8h-3.4v7.7c0,0.5,0.1,0.9,0.4,1.2c0.3,0.3,0.7,0.4,1.2,0.4c0.3,0,0.6,0,0.9-0.1
				c0.3-0.1,0.6-0.2,0.9-0.3l0.1,1.4c-0.3,0.1-0.6,0.2-1,0.3c-0.4,0.1-0.7,0.1-1,0.1c-0.5,0-1-0.1-1.4-0.2c-0.4-0.2-0.7-0.4-0.9-0.7
				c-0.2-0.3-0.4-0.6-0.5-1c-0.1-0.4-0.2-0.8-0.2-1.2v-7.7h-2.6v-1.4h2.6V65h1.5v3.4h3.4V69.8z"/>
			<path class="st1" d="M296.5,71.7c0-0.2,0-0.5,0-0.8c0-0.3,0-0.6,0-1c0-0.3,0-0.6,0-0.9c0-0.3,0-0.5,0-0.7h1.5c0,0.4,0,0.9,0,1.3
				c0,0.4,0,0.7,0.1,0.8h0.1c0.3-0.6,0.8-1.2,1.5-1.7c0.7-0.5,1.5-0.7,2.5-0.7c0.9,0,1.7,0.1,2.2,0.4c0.6,0.3,1,0.7,1.4,1.1
				c0.3,0.5,0.6,1,0.7,1.6c0.1,0.6,0.2,1.2,0.2,1.9v7h-1.5v-6.9c0-0.5,0-0.9-0.1-1.4c-0.1-0.5-0.2-0.9-0.4-1.2
				c-0.2-0.4-0.5-0.6-0.9-0.9c-0.4-0.2-0.9-0.3-1.5-0.3c-0.6,0-1.1,0.1-1.6,0.3c-0.5,0.2-0.9,0.5-1.3,0.9c-0.4,0.4-0.7,0.9-0.9,1.5
				c-0.2,0.6-0.3,1.3-0.3,2.1v5.9h-1.5V71.7z"/>
			<path class="st1" d="M321.1,78c-0.6,0.9-1.3,1.5-2.2,1.9c-0.9,0.4-1.8,0.6-2.9,0.6c-0.9,0-1.7-0.2-2.5-0.5
				c-0.7-0.3-1.4-0.7-1.9-1.3c-0.5-0.6-0.9-1.2-1.2-2c-0.3-0.8-0.4-1.6-0.4-2.5c0-0.9,0.1-1.7,0.4-2.4c0.3-0.7,0.7-1.4,1.2-2
				c0.5-0.6,1.1-1,1.9-1.3c0.7-0.3,1.5-0.5,2.4-0.5c0.9,0,1.7,0.2,2.4,0.5c0.7,0.3,1.3,0.7,1.7,1.3c0.5,0.5,0.8,1.1,1.1,1.8
				c0.2,0.7,0.4,1.3,0.4,2v1.1h-9.9c0,0.3,0.1,0.7,0.2,1.2c0.1,0.5,0.4,1,0.7,1.5c0.3,0.5,0.8,0.9,1.4,1.2c0.6,0.3,1.3,0.5,2.2,0.5
				c0.8,0,1.5-0.2,2.3-0.6c0.7-0.4,1.3-0.9,1.7-1.5L321.1,78z M320,73.3c0-0.5-0.1-1-0.3-1.5c-0.2-0.5-0.5-0.9-0.9-1.2
				c-0.4-0.3-0.8-0.6-1.3-0.8c-0.5-0.2-1-0.3-1.6-0.3c-0.8,0-1.5,0.2-2.1,0.5c-0.6,0.3-1,0.7-1.3,1.2c-0.3,0.4-0.6,0.9-0.7,1.3
				c-0.1,0.4-0.2,0.7-0.2,0.9H320z"/>
			<path class="st1" d="M324.9,71.7c0-0.2,0-0.5,0-0.8c0-0.3,0-0.6,0-1c0-0.3,0-0.6,0-0.9c0-0.3,0-0.5,0-0.7h1.5c0,0.4,0,0.9,0,1.3
				c0,0.4,0,0.7,0.1,0.8c0.4-0.7,0.9-1.3,1.5-1.7c0.6-0.4,1.4-0.7,2.2-0.7c0.2,0,0.3,0,0.4,0c0.1,0,0.3,0.1,0.4,0.1l-0.2,1.5
				c-0.2-0.1-0.4-0.1-0.6-0.1c-0.7,0-1.2,0.1-1.7,0.3c-0.5,0.2-0.9,0.5-1.2,0.9c-0.3,0.4-0.5,0.8-0.7,1.3c-0.2,0.5-0.2,1-0.2,1.6
				v6.4h-1.5V71.7z"/>
			<path class="st1" d="M333.4,77.2c0.3,0.6,0.8,1.1,1.4,1.4c0.6,0.3,1.3,0.5,2,0.5c0.3,0,0.6-0.1,1-0.2c0.3-0.1,0.6-0.2,0.9-0.4
				c0.3-0.2,0.5-0.4,0.6-0.7c0.2-0.3,0.2-0.6,0.2-0.9c0-0.5-0.2-1-0.5-1.2c-0.3-0.3-0.8-0.5-1.3-0.6c-0.5-0.2-1.1-0.3-1.7-0.4
				c-0.6-0.1-1.2-0.3-1.7-0.5c-0.5-0.2-0.9-0.5-1.3-1c-0.3-0.4-0.5-1-0.5-1.7c0-0.6,0.1-1.1,0.4-1.5c0.2-0.4,0.5-0.8,0.9-1.1
				c0.4-0.3,0.8-0.5,1.3-0.6c0.5-0.1,1-0.2,1.5-0.2c1,0,1.8,0.2,2.5,0.5c0.7,0.4,1.3,0.9,1.6,1.7l-1.4,0.8c-0.3-0.5-0.7-1-1.1-1.2
				c-0.4-0.3-1-0.4-1.7-0.4c-0.3,0-0.6,0-0.9,0.1c-0.3,0.1-0.6,0.2-0.8,0.4c-0.2,0.2-0.4,0.3-0.6,0.6c-0.2,0.2-0.2,0.5-0.2,0.8
				c0,0.5,0.2,0.9,0.5,1.2c0.3,0.3,0.8,0.5,1.3,0.6c0.5,0.1,1.1,0.3,1.7,0.4c0.6,0.1,1.2,0.3,1.7,0.5c0.5,0.2,0.9,0.6,1.3,1
				c0.3,0.4,0.5,1,0.5,1.8c0,0.6-0.1,1.1-0.3,1.6c-0.2,0.5-0.5,0.8-0.9,1.1c-0.4,0.3-0.9,0.5-1.4,0.7c-0.5,0.2-1,0.2-1.6,0.2
				c-1,0-2-0.2-2.8-0.6c-0.8-0.4-1.5-1-2-1.8L333.4,77.2z"/>
		</g>
	</g>
</g>
</svg>
